<svg xmlns="http://www.w3.org/2000/svg" width="1080" height="1350" viewBox="0 0 1080 1350" role="img" aria-label="IMSolarCare local ad poster">
  <defs>
    <linearGradient id="bg" x1="0" y1="0" x2="1" y2="1">
      <stop offset="0%" stop-color="#0b2341"/>
      <stop offset="55%" stop-color="#103c69"/>
      <stop offset="100%" stop-color="#0e2237"/>
    </linearGradient>
    <linearGradient id="panel" x1="0" y1="0" x2="1" y2="1">
      <stop offset="0%" stop-color="#113863"/>
      <stop offset="100%" stop-color="#0a1e35"/>
    </linearGradient>
    <linearGradient id="green" x1="0" y1="0" x2="1" y2="0">
      <stop offset="0%" stop-color="#9dfd59"/>
      <stop offset="100%" stop-color="#22d66d"/>
    </linearGradient>
    <linearGradient id="yellow" x1="0" y1="0" x2="1" y2="1">
      <stop offset="0%" stop-color="#ffd44d"/>
      <stop offset="100%" stop-color="#f3a51c"/>
    </linearGradient>
    <filter id="glowGreen" x="-50%" y="-50%" width="200%" height="200%">
      <feGaussianBlur stdDeviation="10" result="blur"/>
      <feMerge>
        <feMergeNode in="blur"/>
        <feMergeNode in="SourceGraphic"/>
      </feMerge>
    </filter>
    <filter id="shadow" x="-30%" y="-30%" width="160%" height="160%">
      <feDropShadow dx="0" dy="18" stdDeviation="20" flood-color="#03111f" flood-opacity=".45"/>
    </filter>
  </defs>

  <rect width="1080" height="1350" fill="url(#bg)"/>
  <circle cx="900" cy="180" r="220" fill="#1f8bff" opacity=".14"/>
  <circle cx="190" cy="1160" r="260" fill="#17b56f" opacity=".08"/>
  <circle cx="530" cy="540" r="280" fill="none" stroke="#2ddf7f" stroke-opacity=".12" stroke-width="4"/>
  <circle cx="530" cy="540" r="340" fill="none" stroke="#33b7ff" stroke-opacity=".1" stroke-width="3"/>

  <text x="540" y="125" text-anchor="middle" font-family="Arial, Helvetica, sans-serif" font-size="86" font-weight="800" fill="#ffffff">IMSOLARCARE</text>
  <text x="540" y="185" text-anchor="middle" font-family="Arial, Helvetica, sans-serif" font-size="40" font-weight="700" fill="#51e27f" letter-spacing="2">SOLAR PANEL CLEANING SERVICE</text>

  <g filter="url(#shadow)">
    <rect x="170" y="235" width="740" height="138" rx="34" fill="#0d2742" stroke="#34ea7c" stroke-width="6"/>
    <rect x="182" y="247" width="716" height="114" rx="28" fill="none" stroke="#ffb52e" stroke-width="4" opacity=".9"/>
  </g>
  <text x="540" y="322" text-anchor="middle" font-family="Arial, Helvetica, sans-serif" font-size="74" font-weight="900" fill="#ffd244">₹499 STARTING OFFER</text>
  <text x="540" y="357" text-anchor="middle" font-family="Arial, Helvetica, sans-serif" font-size="24" font-weight="700" fill="#ffffff">Limited slots available • Terms apply</text>

  <g transform="translate(235 410)" filter="url(#shadow)">
    <polygon points="0,70 295,0 605,70 540,352 70,352" fill="#dce3eb"/>
    <polygon points="80,70 298,22 298,328 110,328" fill="#6f747b"/>
    <polygon points="306,20 524,70 490,328 306,328" fill="#3978d6"/>
    <g stroke="#d8dde5" stroke-width="2" opacity=".7">
      <line x1="118" y1="70" x2="118" y2="328"/>
      <line x1="153" y1="62" x2="153" y2="328"/>
      <line x1="188" y1="55" x2="188" y2="328"/>
      <line x1="223" y1="47" x2="223" y2="328"/>
      <line x1="258" y1="39" x2="258" y2="328"/>
      <line x1="342" y1="27" x2="342" y2="328"/>
      <line x1="378" y1="35" x2="378" y2="328"/>
      <line x1="414" y1="44" x2="414" y2="328"/>
      <line x1="450" y1="52" x2="450" y2="328"/>
      <line x1="486" y1="60" x2="486" y2="328"/>
      <line x1="98" y1="113" x2="500" y2="113"/>
      <line x1="90" y1="156" x2="494" y2="156"/>
      <line x1="84" y1="199" x2="487" y2="199"/>
      <line x1="76" y1="242" x2="481" y2="242"/>
      <line x1="70" y1="285" x2="474" y2="285"/>
    </g>
  </g>

  <g filter="url(#shadow)">
    <rect x="72" y="500" width="220" height="160" rx="26" fill="url(#panel)" stroke="#5cc4ff" stroke-opacity=".35"/>
    <text x="182" y="560" text-anchor="middle" font-family="Arial, Helvetica, sans-serif" font-size="28" font-weight="800" fill="#ff9f57">DIRTY PANELS</text>
    <text x="182" y="603" text-anchor="middle" font-family="Arial, Helvetica, sans-serif" font-size="22" font-weight="700" fill="#ffffff">dust buildup can</text>
    <text x="182" y="635" text-anchor="middle" font-family="Arial, Helvetica, sans-serif" font-size="22" font-weight="700" fill="#ffffff">reduce output</text>
  </g>

  <g filter="url(#shadow)">
    <rect x="790" y="500" width="220" height="160" rx="26" fill="url(#panel)" stroke="#5cf08f" stroke-opacity=".35"/>
    <text x="900" y="560" text-anchor="middle" font-family="Arial, Helvetica, sans-serif" font-size="28" font-weight="800" fill="#64f18e">CLEAN PANELS</text>
    <text x="900" y="603" text-anchor="middle" font-family="Arial, Helvetica, sans-serif" font-size="22" font-weight="700" fill="#ffffff">better-looking roof</text>
    <text x="900" y="635" text-anchor="middle" font-family="Arial, Helvetica, sans-serif" font-size="22" font-weight="700" fill="#ffffff">and easier upkeep</text>
  </g>

  <g filter="url(#shadow)">
    <rect x="82" y="735" width="300" height="390" rx="30" fill="url(#panel)" stroke="#cfe5ff" stroke-opacity=".25"/>
    <text x="232" y="790" text-anchor="middle" font-family="Arial, Helvetica, sans-serif" font-size="34" font-weight="800" fill="#ffffff">OUR SERVICES</text>

    <circle cx="128" cy="858" r="18" fill="#54df84"/>
    <text x="162" y="867" font-family="Arial, Helvetica, sans-serif" font-size="26" font-weight="700" fill="#ffffff">Panel cleaning</text>

    <circle cx="128" cy="928" r="18" fill="#54df84"/>
    <text x="162" y="937" font-family="Arial, Helvetica, sans-serif" font-size="26" font-weight="700" fill="#ffffff">Deep cleaning</text>

    <circle cx="128" cy="998" r="18" fill="#54df84"/>
    <text x="162" y="1007" font-family="Arial, Helvetica, sans-serif" font-size="26" font-weight="700" fill="#ffffff">Bird dirt removal</text>

    <circle cx="128" cy="1068" r="18" fill="#54df84"/>
    <text x="162" y="1077" font-family="Arial, Helvetica, sans-serif" font-size="26" font-weight="700" fill="#ffffff">AMC plans</text>
  </g>

  <g filter="url(#shadow)">
    <rect x="402" y="746" width="596" height="146" rx="34" fill="#10283f" stroke="#47ef86" stroke-width="5"/>
    <text x="700" y="801" text-anchor="middle" font-family="Arial, Helvetica, sans-serif" font-size="34" font-weight="800" fill="#ffffff">CALL OR WHATSAPP NOW</text>
    <text x="700" y="868" text-anchor="middle" font-family="Arial, Helvetica, sans-serif" font-size="76" font-weight="900" fill="#a9ff42" filter="url(#glowGreen)">8112780010</text>
  </g>

  <g filter="url(#shadow)">
    <rect x="420" y="930" width="250" height="150" rx="28" fill="url(#yellow)"/>
    <text x="545" y="998" text-anchor="middle" font-family="Arial, Helvetica, sans-serif" font-size="31" font-weight="900" fill="#112237">WHY CHOOSE</text>
    <text x="545" y="1042" text-anchor="middle" font-family="Arial, Helvetica, sans-serif" font-size="42" font-weight="900" fill="#112237">US?</text>
  </g>

  <g filter="url(#shadow)">
    <rect x="704" y="735" width="294" height="390" rx="30" fill="url(#panel)" stroke="#cfe5ff" stroke-opacity=".25"/>
    <text x="851" y="808" text-anchor="middle" font-family="Arial, Helvetica, sans-serif" font-size="30" font-weight="800" fill="#ffffff">FAST SERVICE</text>
    <text x="851" y="878" text-anchor="middle" font-family="Arial, Helvetica, sans-serif" font-size="30" font-weight="800" fill="#ffffff">AFFORDABLE PRICING</text>
    <text x="851" y="948" text-anchor="middle" font-family="Arial, Helvetica, sans-serif" font-size="30" font-weight="800" fill="#ffffff">TRUSTED LOCAL TEAM</text>

    <rect x="746" y="1012" width="210" height="54" rx="20" fill="#12273d" stroke="#54df84" stroke-opacity=".45"/>
    <text x="851" y="1047" text-anchor="middle" font-family="Arial, Helvetica, sans-serif" font-size="22" font-weight="800" fill="#f5f7fb">CLEANING</text>
  </g>

  <g filter="url(#shadow)">
    <rect x="72" y="1180" width="936" height="104" rx="28" fill="#0d2339" stroke="#2de47d" stroke-opacity=".4"/>
    <text x="224" y="1243" text-anchor="middle" font-family="Arial, Helvetica, sans-serif" font-size="30" font-weight="800" fill="#ffffff">📞 8112780010</text>
    <text x="804" y="1243" text-anchor="middle" font-family="Arial, Helvetica, sans-serif" font-size="30" font-weight="800" fill="#ffffff">📍 Lucknow Service</text>
  </g>
</svg>
