<svg width="1200" height="900" viewBox="0 0 1200 900" fill="none" xmlns="http://www.w3.org/2000/svg">
  <rect width="1200" height="900" rx="36" fill="#FFF8EE"/>
  <rect x="70" y="84" width="1060" height="732" rx="32" fill="#FFFDF8" stroke="#DDD5C7" stroke-width="8"/>
  <rect x="128" y="160" width="432" height="490" rx="30" fill="#1A2A22"/>
  <rect x="640" y="160" width="432" height="490" rx="30" fill="#153D2D"/>
  <rect x="154" y="190" width="380" height="420" rx="18" fill="#415348"/>
  <rect x="666" y="190" width="380" height="420" rx="18" fill="#29513D"/>
  <path d="M154 296H534" stroke="#8CA398" stroke-width="10"/>
  <path d="M154 402H534" stroke="#8CA398" stroke-width="10"/>
  <path d="M154 508H534" stroke="#8CA398" stroke-width="10"/>
  <path d="M229 190V610" stroke="#8CA398" stroke-width="10"/>
  <path d="M304 190V610" stroke="#8CA398" stroke-width="10"/>
  <path d="M379 190V610" stroke="#8CA398" stroke-width="10"/>
  <path d="M454 190V610" stroke="#8CA398" stroke-width="10"/>
  <path d="M666 296H1046" stroke="#9DDBB1" stroke-width="10"/>
  <path d="M666 402H1046" stroke="#9DDBB1" stroke-width="10"/>
  <path d="M666 508H1046" stroke="#9DDBB1" stroke-width="10"/>
  <path d="M741 190V610" stroke="#9DDBB1" stroke-width="10"/>
  <path d="M816 190V610" stroke="#9DDBB1" stroke-width="10"/>
  <path d="M891 190V610" stroke="#9DDBB1" stroke-width="10"/>
  <path d="M966 190V610" stroke="#9DDBB1" stroke-width="10"/>
  <circle cx="230" cy="255" r="18" fill="#B49E77"/>
  <circle cx="400" cy="330" r="24" fill="#B49E77"/>
  <circle cx="308" cy="470" r="28" fill="#B49E77"/>
  <circle cx="478" cy="548" r="20" fill="#B49E77"/>
  <path d="M190 224L524 594" stroke="#978669" stroke-width="14" stroke-linecap="round" opacity="0.68"/>
  <path d="M230 204L560 550" stroke="#978669" stroke-width="12" stroke-linecap="round" opacity="0.42"/>
  <path d="M720 210C744 230 748 260 738 286" stroke="#7DD7F2" stroke-width="12" stroke-linecap="round"/>
  <path d="M802 220C826 244 830 272 820 300" stroke="#7DD7F2" stroke-width="12" stroke-linecap="round"/>
  <path d="M884 224C908 248 912 278 902 304" stroke="#7DD7F2" stroke-width="12" stroke-linecap="round"/>
  <rect x="126" y="686" width="434" height="84" rx="24" fill="#F7E7D3"/>
  <rect x="640" y="686" width="432" height="84" rx="24" fill="#DCF2E2"/>
  <text x="160" y="742" fill="#6F5636" font-family="Arial, sans-serif" font-size="36" font-weight="700">Before Cleaning</text>
  <text x="680" y="742" fill="#1D5B43" font-family="Arial, sans-serif" font-size="36" font-weight="700">After Cleaning</text>
  <text x="126" y="124" fill="#1D231E" font-family="Arial, sans-serif" font-size="52" font-weight="700">Performance visibility matters.</text>
</svg>
